<svg xmlns="http://www.w3.org/2000/svg" viewBox="0 0 1000 620" role="img" aria-labelledby="title desc">
<title id="title">Carlsbad landmark illustration</title>
<desc id="desc">Original illustrated postcard representing The Flower Fields at Carlsbad Ranch in Carlsbad, California.</desc>
<rect width="1000" height="620" fill="#fff7dc"/>
<circle cx="815" cy="115" r="72" fill="#f5bf21" opacity=".85"/>
<path d="M0 420 C180 365 320 430 480 395 C670 352 790 420 1000 365 L1000 620 L0 620 Z" fill="#f5bf21" opacity=".35"/>
<g fill="#222222" opacity=".96"><rect x="70" y="142" width="63" height="218" rx="3"/><rect x="151" y="283" width="80" height="77" rx="3"/><rect x="249" y="254" width="52" height="106" rx="3"/><rect x="319" y="225" width="69" height="135" rx="3"/><rect x="406" y="196" width="86" height="164" rx="3"/><rect x="510" y="167" width="58" height="193" rx="3"/><rect x="586" y="138" width="75" height="222" rx="3"/></g>
<path d="M0 430 H1000" stroke="#222222" stroke-width="12"/>
<text x="62" y="505" font-family="Arial, sans-serif" font-size="30" letter-spacing="6" fill="#222222">CARLSBAD</text>
<text x="62" y="555" font-family="Georgia, serif" font-size="34" fill="#222222">The Flower Fields at Carlsbad Ranch</text>
<text x="840" y="555" text-anchor="end" font-family="Arial, sans-serif" font-size="18" fill="#222222">SAN DIEGO COUNTY</text>
</svg>