<svg xmlns="http://www.w3.org/2000/svg" viewBox="0 0 1000 620" role="img" aria-labelledby="title desc">
<title id="title">Coronado landmark illustration</title>
<desc id="desc">Original illustrated postcard representing Hotel del Coronado in Coronado, California.</desc>
<rect width="1000" height="620" fill="#f8f3e7"/>
<circle cx="815" cy="115" r="72" fill="#d8b35e" opacity=".85"/>
<path d="M0 420 C180 365 320 430 480 395 C670 352 790 420 1000 365 L1000 620 L0 620 Z" fill="#d8b35e" opacity=".35"/>
<g fill="#24323a" opacity=".96"><rect x="70" y="287" width="88" height="73" rx="3"/><rect x="176" y="258" width="60" height="102" rx="3"/><rect x="254" y="229" width="77" height="131" rx="3"/><rect x="349" y="200" width="49" height="160" rx="3"/><rect x="416" y="171" width="66" height="189" rx="3"/><rect x="500" y="142" width="83" height="218" rx="3"/><rect x="601" y="283" width="55" height="77" rx="3"/></g>
<path d="M0 430 H1000" stroke="#24323a" stroke-width="12"/>
<text x="62" y="505" font-family="Arial, sans-serif" font-size="30" letter-spacing="6" fill="#24323a">CORONADO</text>
<text x="62" y="555" font-family="Georgia, serif" font-size="34" fill="#24323a">Hotel del Coronado</text>
<text x="840" y="555" text-anchor="end" font-family="Arial, sans-serif" font-size="18" fill="#24323a">SAN DIEGO COUNTY</text>
</svg>