<svg xmlns="http://www.w3.org/2000/svg" viewBox="0 0 1000 620" role="img" aria-labelledby="title desc">
<title id="title">Del Mar landmark illustration</title>
<desc id="desc">Original illustrated postcard representing Del Mar Racetrack and Fairgrounds in Del Mar, California.</desc>
<rect width="1000" height="620" fill="#f8f3e7"/>
<circle cx="815" cy="115" r="72" fill="#d8b35e" opacity=".85"/>
<path d="M0 420 C180 365 320 430 480 395 C670 352 790 420 1000 365 L1000 620 L0 620 Z" fill="#d8b35e" opacity=".35"/>
<g fill="#24323a" opacity=".96"><rect x="70" y="126" width="89" height="234" rx="3"/><rect x="177" y="267" width="61" height="93" rx="3"/><rect x="256" y="238" width="78" height="122" rx="3"/><rect x="352" y="209" width="50" height="151" rx="3"/><rect x="420" y="180" width="67" height="180" rx="3"/><rect x="505" y="151" width="84" height="209" rx="3"/><rect x="607" y="122" width="56" height="238" rx="3"/></g>
<path d="M0 430 H1000" stroke="#24323a" stroke-width="12"/>
<text x="62" y="505" font-family="Arial, sans-serif" font-size="30" letter-spacing="6" fill="#24323a">DEL MAR</text>
<text x="62" y="555" font-family="Georgia, serif" font-size="34" fill="#24323a">Del Mar Racetrack and Fairgrounds</text>
<text x="840" y="555" text-anchor="end" font-family="Arial, sans-serif" font-size="18" fill="#24323a">SAN DIEGO COUNTY</text>
</svg>