<svg xmlns="http://www.w3.org/2000/svg" viewBox="0 0 1000 620" role="img" aria-labelledby="title desc">
<title id="title">El Cajon landmark illustration</title>
<desc id="desc">Original illustrated postcard representing The Magnolia Performing Arts Center in El Cajon, California.</desc>
<rect width="1000" height="620" fill="#fff7dc"/>
<circle cx="815" cy="115" r="72" fill="#f5bf21" opacity=".85"/>
<path d="M0 420 C180 365 320 430 480 395 C670 352 790 420 1000 365 L1000 620 L0 620 Z" fill="#f5bf21" opacity=".35"/>
<g fill="#222222" opacity=".96"><rect x="70" y="193" width="57" height="167" rx="3"/><rect x="145" y="164" width="74" height="196" rx="3"/><rect x="237" y="135" width="46" height="225" rx="3"/><rect x="301" y="276" width="63" height="84" rx="3"/><rect x="382" y="247" width="80" height="113" rx="3"/><rect x="480" y="218" width="52" height="142" rx="3"/><rect x="550" y="189" width="69" height="171" rx="3"/></g>
<path d="M0 430 H1000" stroke="#222222" stroke-width="12"/>
<text x="62" y="505" font-family="Arial, sans-serif" font-size="30" letter-spacing="6" fill="#222222">EL CAJON</text>
<text x="62" y="555" font-family="Georgia, serif" font-size="34" fill="#222222">The Magnolia Performing Arts Center</text>
<text x="840" y="555" text-anchor="end" font-family="Arial, sans-serif" font-size="18" fill="#222222">SAN DIEGO COUNTY</text>
</svg>