<svg xmlns="http://www.w3.org/2000/svg" viewBox="0 0 1000 620" role="img" aria-labelledby="title desc">
<title id="title">Escondido landmark illustration</title>
<desc id="desc">Original illustrated postcard representing The Giving Arch on Grand Avenue in Escondido, California.</desc>
<rect width="1000" height="620" fill="#fff7dc"/>
<circle cx="815" cy="115" r="72" fill="#f5bf21" opacity=".85"/>
<path d="M0 420 C180 365 320 430 480 395 C670 352 790 420 1000 365 L1000 620 L0 620 Z" fill="#f5bf21" opacity=".35"/>
<g fill="#222222" opacity=".96"><rect x="70" y="188" width="52" height="172" rx="3"/><rect x="140" y="159" width="69" height="201" rx="3"/><rect x="227" y="130" width="86" height="230" rx="3"/><rect x="331" y="271" width="58" height="89" rx="3"/><rect x="407" y="242" width="75" height="118" rx="3"/><rect x="500" y="213" width="47" height="147" rx="3"/><rect x="565" y="184" width="64" height="176" rx="3"/></g>
<path d="M0 430 H1000" stroke="#222222" stroke-width="12"/>
<text x="62" y="505" font-family="Arial, sans-serif" font-size="30" letter-spacing="6" fill="#222222">ESCONDIDO</text>
<text x="62" y="555" font-family="Georgia, serif" font-size="34" fill="#222222">The Giving Arch on Grand Avenue</text>
<text x="840" y="555" text-anchor="end" font-family="Arial, sans-serif" font-size="18" fill="#222222">SAN DIEGO COUNTY</text>
</svg>