<svg xmlns="http://www.w3.org/2000/svg" viewBox="0 0 1000 620" role="img" aria-labelledby="title desc">
<title id="title">Imperial Beach landmark illustration</title>
<desc id="desc">Original illustrated postcard representing Imperial Beach Pier in Imperial Beach, California.</desc>
<rect width="1000" height="620" fill="#f4efe5"/>
<circle cx="815" cy="115" r="72" fill="#e2a84b" opacity=".85"/>
<path d="M0 420 C180 365 320 430 480 395 C670 352 790 420 1000 365 L1000 620 L0 620 Z" fill="#e2a84b" opacity=".35"/>
<g fill="#29313d" opacity=".96"><rect x="70" y="255" width="45" height="105" rx="3"/><rect x="133" y="226" width="62" height="134" rx="3"/><rect x="213" y="197" width="79" height="163" rx="3"/><rect x="310" y="168" width="51" height="192" rx="3"/><rect x="379" y="139" width="68" height="221" rx="3"/><rect x="465" y="280" width="85" height="80" rx="3"/><rect x="568" y="251" width="57" height="109" rx="3"/></g>
<path d="M0 430 H1000" stroke="#29313d" stroke-width="12"/>
<text x="62" y="505" font-family="Arial, sans-serif" font-size="30" letter-spacing="6" fill="#29313d">IMPERIAL BEACH</text>
<text x="62" y="555" font-family="Georgia, serif" font-size="34" fill="#29313d">Imperial Beach Pier</text>
<text x="840" y="555" text-anchor="end" font-family="Arial, sans-serif" font-size="18" fill="#29313d">SAN DIEGO COUNTY</text>
</svg>