<svg xmlns="http://www.w3.org/2000/svg" viewBox="0 0 1000 620" role="img" aria-labelledby="title desc">
<title id="title">La Mesa landmark illustration</title>
<desc id="desc">Original illustrated postcard representing La Mesa Depot in La Mesa, California.</desc>
<rect width="1000" height="620" fill="#fff9e9"/>
<circle cx="815" cy="115" r="72" fill="#f0c75e" opacity=".85"/>
<path d="M0 420 C180 365 320 430 480 395 C670 352 790 420 1000 365 L1000 620 L0 620 Z" fill="#f0c75e" opacity=".35"/>
<g fill="#24323a" opacity=".96"><rect x="70" y="128" width="87" height="232" rx="3"/><rect x="175" y="269" width="59" height="91" rx="3"/><rect x="252" y="240" width="76" height="120" rx="3"/><rect x="346" y="211" width="48" height="149" rx="3"/><rect x="412" y="182" width="65" height="178" rx="3"/><rect x="495" y="153" width="82" height="207" rx="3"/><rect x="595" y="124" width="54" height="236" rx="3"/></g>
<path d="M0 430 H1000" stroke="#24323a" stroke-width="12"/>
<text x="62" y="505" font-family="Arial, sans-serif" font-size="30" letter-spacing="6" fill="#24323a">LA MESA</text>
<text x="62" y="555" font-family="Georgia, serif" font-size="34" fill="#24323a">La Mesa Depot</text>
<text x="840" y="555" text-anchor="end" font-family="Arial, sans-serif" font-size="18" fill="#24323a">SAN DIEGO COUNTY</text>
</svg>