<svg xmlns="http://www.w3.org/2000/svg" viewBox="0 0 1000 620" role="img" aria-labelledby="title desc">
<title id="title">Lemon Grove landmark illustration</title>
<desc id="desc">Original illustrated postcard representing The Giant Lemon in Lemon Grove, California.</desc>
<rect width="1000" height="620" fill="#f4efe5"/>
<circle cx="815" cy="115" r="72" fill="#e2a84b" opacity=".85"/>
<path d="M0 420 C180 365 320 430 480 395 C670 352 790 420 1000 365 L1000 620 L0 620 Z" fill="#e2a84b" opacity=".35"/>
<g fill="#29313d" opacity=".96"><rect x="70" y="179" width="51" height="181" rx="3"/><rect x="139" y="150" width="68" height="210" rx="3"/><rect x="225" y="121" width="85" height="239" rx="3"/><rect x="328" y="262" width="57" height="98" rx="3"/><rect x="403" y="233" width="74" height="127" rx="3"/><rect x="495" y="204" width="46" height="156" rx="3"/><rect x="559" y="175" width="63" height="185" rx="3"/></g>
<path d="M0 430 H1000" stroke="#29313d" stroke-width="12"/>
<text x="62" y="505" font-family="Arial, sans-serif" font-size="30" letter-spacing="6" fill="#29313d">LEMON GROVE</text>
<text x="62" y="555" font-family="Georgia, serif" font-size="34" fill="#29313d">The Giant Lemon</text>
<text x="840" y="555" text-anchor="end" font-family="Arial, sans-serif" font-size="18" fill="#29313d">SAN DIEGO COUNTY</text>
</svg>