<svg xmlns="http://www.w3.org/2000/svg" viewBox="0 0 1000 620" role="img" aria-labelledby="title desc">
<title id="title">National City landmark illustration</title>
<desc id="desc">Original illustrated postcard representing National City Depot in National City, California.</desc>
<rect width="1000" height="620" fill="#fff9e9"/>
<circle cx="815" cy="115" r="72" fill="#f0c75e" opacity=".85"/>
<path d="M0 420 C180 365 320 430 480 395 C670 352 790 420 1000 365 L1000 620 L0 620 Z" fill="#f0c75e" opacity=".35"/>
<g fill="#24323a" opacity=".96"><rect x="70" y="140" width="80" height="220" rx="3"/><rect x="168" y="281" width="52" height="79" rx="3"/><rect x="238" y="252" width="69" height="108" rx="3"/><rect x="325" y="223" width="86" height="137" rx="3"/><rect x="429" y="194" width="58" height="166" rx="3"/><rect x="505" y="165" width="75" height="195" rx="3"/><rect x="598" y="136" width="47" height="224" rx="3"/></g>
<path d="M0 430 H1000" stroke="#24323a" stroke-width="12"/>
<text x="62" y="505" font-family="Arial, sans-serif" font-size="30" letter-spacing="6" fill="#24323a">NATIONAL CITY</text>
<text x="62" y="555" font-family="Georgia, serif" font-size="34" fill="#24323a">National City Depot</text>
<text x="840" y="555" text-anchor="end" font-family="Arial, sans-serif" font-size="18" fill="#24323a">SAN DIEGO COUNTY</text>
</svg>