<svg xmlns="http://www.w3.org/2000/svg" viewBox="0 0 1000 620" role="img" aria-labelledby="title desc">
<title id="title">Oceanside landmark illustration</title>
<desc id="desc">Original illustrated postcard representing Oceanside Pier in Oceanside, California.</desc>
<rect width="1000" height="620" fill="#fff9e9"/>
<circle cx="815" cy="115" r="72" fill="#f0c75e" opacity=".85"/>
<path d="M0 420 C180 365 320 430 480 395 C670 352 790 420 1000 365 L1000 620 L0 620 Z" fill="#f0c75e" opacity=".35"/>
<g fill="#24323a" opacity=".96"><rect x="70" y="201" width="84" height="159" rx="3"/><rect x="172" y="172" width="56" height="188" rx="3"/><rect x="246" y="143" width="73" height="217" rx="3"/><rect x="337" y="284" width="45" height="76" rx="3"/><rect x="400" y="255" width="62" height="105" rx="3"/><rect x="480" y="226" width="79" height="134" rx="3"/><rect x="577" y="197" width="51" height="163" rx="3"/></g>
<path d="M0 430 H1000" stroke="#24323a" stroke-width="12"/>
<text x="62" y="505" font-family="Arial, sans-serif" font-size="30" letter-spacing="6" fill="#24323a">OCEANSIDE</text>
<text x="62" y="555" font-family="Georgia, serif" font-size="34" fill="#24323a">Oceanside Pier</text>
<text x="840" y="555" text-anchor="end" font-family="Arial, sans-serif" font-size="18" fill="#24323a">SAN DIEGO COUNTY</text>
</svg>