<svg xmlns="http://www.w3.org/2000/svg" viewBox="0 0 1000 620" role="img" aria-labelledby="title desc">
<title id="title">Poway landmark illustration</title>
<desc id="desc">Original illustrated postcard representing Old Poway Park and Poway-Midland Ra… in Poway, California.</desc>
<rect width="1000" height="620" fill="#fff7dc"/>
<circle cx="815" cy="115" r="72" fill="#f5bf21" opacity=".85"/>
<path d="M0 420 C180 365 320 430 480 395 C670 352 790 420 1000 365 L1000 620 L0 620 Z" fill="#f5bf21" opacity=".35"/>
<g fill="#222222" opacity=".96"><rect x="70" y="240" width="65" height="120" rx="3"/><rect x="153" y="211" width="82" height="149" rx="3"/><rect x="253" y="182" width="54" height="178" rx="3"/><rect x="325" y="153" width="71" height="207" rx="3"/><rect x="414" y="124" width="88" height="236" rx="3"/><rect x="520" y="265" width="60" height="95" rx="3"/><rect x="598" y="236" width="77" height="124" rx="3"/></g>
<path d="M0 430 H1000" stroke="#222222" stroke-width="12"/>
<text x="62" y="505" font-family="Arial, sans-serif" font-size="30" letter-spacing="6" fill="#222222">POWAY</text>
<text x="62" y="555" font-family="Georgia, serif" font-size="34" fill="#222222">Old Poway Park and Poway-Midland Ra…</text>
<text x="840" y="555" text-anchor="end" font-family="Arial, sans-serif" font-size="18" fill="#222222">SAN DIEGO COUNTY</text>
</svg>