<svg xmlns="http://www.w3.org/2000/svg" viewBox="0 0 1000 620" role="img" aria-labelledby="title desc">
<title id="title">Solana Beach landmark illustration</title>
<desc id="desc">Original illustrated postcard representing Fletcher Cove and the Cedros Design… in Solana Beach, California.</desc>
<rect width="1000" height="620" fill="#f8f3e7"/>
<circle cx="815" cy="115" r="72" fill="#d8b35e" opacity=".85"/>
<path d="M0 420 C180 365 320 430 480 395 C670 352 790 420 1000 365 L1000 620 L0 620 Z" fill="#d8b35e" opacity=".35"/>
<g fill="#24323a" opacity=".96"><rect x="70" y="128" width="57" height="232" rx="3"/><rect x="145" y="269" width="74" height="91" rx="3"/><rect x="237" y="240" width="46" height="120" rx="3"/><rect x="301" y="211" width="63" height="149" rx="3"/><rect x="382" y="182" width="80" height="178" rx="3"/><rect x="480" y="153" width="52" height="207" rx="3"/><rect x="550" y="124" width="69" height="236" rx="3"/></g>
<path d="M0 430 H1000" stroke="#24323a" stroke-width="12"/>
<text x="62" y="505" font-family="Arial, sans-serif" font-size="30" letter-spacing="6" fill="#24323a">SOLANA BEACH</text>
<text x="62" y="555" font-family="Georgia, serif" font-size="34" fill="#24323a">Fletcher Cove and the Cedros Design…</text>
<text x="840" y="555" text-anchor="end" font-family="Arial, sans-serif" font-size="18" fill="#24323a">SAN DIEGO COUNTY</text>
</svg>