<svg xmlns="http://www.w3.org/2000/svg" viewBox="0 0 1000 620" role="img" aria-labelledby="title desc">
<title id="title">Vista landmark illustration</title>
<desc id="desc">Original illustrated postcard representing Moonlight Amphitheatre in Vista, California.</desc>
<rect width="1000" height="620" fill="#fff9e9"/>
<circle cx="815" cy="115" r="72" fill="#f0c75e" opacity=".85"/>
<path d="M0 420 C180 365 320 430 480 395 C670 352 790 420 1000 365 L1000 620 L0 620 Z" fill="#f0c75e" opacity=".35"/>
<g fill="#24323a" opacity=".96"><rect x="70" y="249" width="56" height="111" rx="3"/><rect x="144" y="220" width="73" height="140" rx="3"/><rect x="235" y="191" width="45" height="169" rx="3"/><rect x="298" y="162" width="62" height="198" rx="3"/><rect x="378" y="133" width="79" height="227" rx="3"/><rect x="475" y="274" width="51" height="86" rx="3"/><rect x="544" y="245" width="68" height="115" rx="3"/></g>
<path d="M0 430 H1000" stroke="#24323a" stroke-width="12"/>
<text x="62" y="505" font-family="Arial, sans-serif" font-size="30" letter-spacing="6" fill="#24323a">VISTA</text>
<text x="62" y="555" font-family="Georgia, serif" font-size="34" fill="#24323a">Moonlight Amphitheatre</text>
<text x="840" y="555" text-anchor="end" font-family="Arial, sans-serif" font-size="18" fill="#24323a">SAN DIEGO COUNTY</text>
</svg>